<svg width="34" height="34" fill="none" xmlns="http://www.w3.org/2000/svg"><path fill-rule="evenodd" clip-rule="evenodd" d="M33.488 16.8c0 9.015-7.414 16.324-16.56 16.324C7.78 33.124.366 25.815.366 16.799.367 7.784 7.78.475 16.927.475s16.561 7.309 16.561 16.324zm-1.325 0c0 8.294-6.821 15.018-15.236 15.018-8.414 0-15.235-6.724-15.235-15.019 0-8.294 6.82-15.018 15.235-15.018S32.163 8.505 32.163 16.8zm-17.885-3.265v.653h1.325v10.447h-1.325v.653h5.299v-.653h-1.325v-11.1h-3.974zm4.637-3.265c0 1.082-.89 1.959-1.988 1.959-1.097 0-1.987-.877-1.987-1.96 0-1.081.89-1.958 1.987-1.958 1.098 0 1.988.877 1.988 1.959z" fill="#2B4074"/></svg>