<svg width="29" height="28" fill="none" xmlns="http://www.w3.org/2000/svg"><path fill-rule="evenodd" clip-rule="evenodd" d="M28.977 13.792c0 7.617-6.264 13.791-13.99 13.791-7.727 0-13.99-6.174-13.99-13.79C.996 6.175 7.26.001 14.986.001c7.726 0 13.99 6.174 13.99 13.79zm-1.119 0c0 7.007-5.763 12.688-12.871 12.688-7.109 0-12.872-5.68-12.872-12.688 0-7.007 5.763-12.687 12.872-12.687 7.108 0 12.871 5.68 12.871 12.687zm-15.11-2.758v.552h1.12v8.826h-1.12v.552h4.478v-.552h-1.12v-9.378h-3.358zm3.918-2.758c0 .914-.752 1.655-1.68 1.655-.927 0-1.678-.74-1.678-1.655 0-.914.751-1.655 1.679-1.655.927 0 1.679.741 1.679 1.655z" fill="#fff"/></svg>